<svg width="122" height="21" viewBox="0 0 122 21" fill="none" xmlns="http://www.w3.org/2000/svg">
<g clip-path="url(#clip0_240_620)">
<path d="M10.755 0.5H9.19238V9.9308H10.755V0.5Z" fill="#C6D4FF"/>
<path d="M14.6937 4.43506H5.25488V5.99632H14.6937V4.43506Z" fill="#C6D4FF"/>
<path d="M12.6449 1.37732L5.9707 8.0459L7.07562 9.14988L13.7499 2.4813L12.6449 1.37732Z" fill="#C6D4FF"/>
<path d="M7.21917 1.44387L6.11426 2.54785L12.7885 9.21643L13.8934 8.11245L7.21917 1.44387Z" fill="#C6D4FF"/>
<path d="M5.50009 11.0029H3.9375V20.4337H5.50009V11.0029Z" fill="#0A7F8C"/>
<path d="M9.43879 14.9365H0V16.4978H9.43879V14.9365Z" fill="#0A7F8C"/>
<path d="M7.39005 11.8807L0.71582 18.5493L1.82073 19.6533L8.49497 12.9847L7.39005 11.8807Z" fill="#0A7F8C"/>
<path d="M1.96624 11.9468L0.861328 13.0508L7.53556 19.7194L8.64048 18.6154L1.96624 11.9468Z" fill="#0A7F8C"/>
<path d="M16.0108 11.0029H14.4482V20.4337H16.0108V11.0029Z" fill="#6631FF"/>
<path d="M19.9505 14.9375H10.5117V16.4988H19.9505V14.9375Z" fill="#6631FF"/>
<path d="M17.9018 11.8807L11.2275 18.5493L12.3325 19.6533L19.0067 12.9847L17.9018 11.8807Z" fill="#6631FF"/>
<path d="M12.478 11.9468L11.373 13.0508L18.0473 19.7194L19.1522 18.6154L12.478 11.9468Z" fill="#6631FF"/>
<path d="M28.7197 20.4485V1.33079H32.4383V10.4164L40.4686 1.30371H44.5644L37.2346 9.82384L45.023 20.4454H40.8187L34.8906 12.197L32.4383 14.7316V20.4485H28.7197Z" fill="white"/>
<path d="M46.8066 0.5H50.4169V15.6534C50.4169 16.3198 50.5249 16.7659 50.741 16.9915C50.853 17.1049 50.9876 17.1935 51.1361 17.2516C51.2846 17.3097 51.4436 17.336 51.6029 17.3289C51.9158 17.3313 52.2279 17.2963 52.5325 17.2247C52.8095 17.1615 53.0768 17.0621 53.3277 16.929L53.8124 19.7041C53.276 19.9541 52.7101 20.135 52.1282 20.2425C51.5476 20.3632 50.9567 20.427 50.3637 20.4331C49.2319 20.4331 48.3561 20.1318 47.7363 19.5292C47.1165 18.9266 46.8066 18.0762 46.8066 16.9779V0.5Z" fill="white"/>
<path d="M55.5938 15.01V6.26283H59.229V14.2175C59.229 15.2818 59.4266 16.0843 59.822 16.6251C60.2173 17.1659 60.8013 17.4366 61.5739 17.4373C62.0499 17.4354 62.521 17.3414 62.9611 17.1603C63.4332 16.9665 63.8635 16.6837 64.2284 16.3272C64.6384 15.925 64.9714 15.4514 65.2113 14.9298V6.26074H68.8496V16.2096C68.8496 16.5824 68.9121 16.8479 69.0382 17.0083C69.1644 17.1686 69.379 17.2644 69.6855 17.2998V20.2353C69.3259 20.2895 69.0247 20.3291 68.7829 20.3561C68.5636 20.3822 68.343 20.3957 68.1221 20.3967C67.4927 20.3967 66.9761 20.2454 66.5724 19.9427C66.1776 19.6552 65.9121 19.2238 65.8335 18.7421L65.7532 17.6227C65.1537 18.5394 64.321 19.2805 63.3405 19.7699C62.3216 20.2661 61.2002 20.5158 60.0669 20.4988C58.612 20.4988 57.5027 20.0323 56.7391 19.0993C55.9755 18.1662 55.5938 16.8031 55.5938 15.01Z" fill="white"/>
<path d="M77.7479 20.4532C76.568 20.4574 75.3962 20.2572 74.2847 19.8617C73.2275 19.4957 72.2659 18.8976 71.4707 18.1112L72.7912 15.7682C73.5253 16.395 74.3527 16.9037 75.2435 17.2761C75.9953 17.5884 76.8003 17.7531 77.6145 17.7613C78.3163 17.7613 78.8777 17.6402 79.2987 17.3979C79.4967 17.2943 79.6612 17.1368 79.7733 16.9437C79.8855 16.7506 79.9406 16.5297 79.9324 16.3066C79.9324 15.9525 79.8157 15.6825 79.5822 15.4964C79.2773 15.2765 78.9347 15.1141 78.5713 15.0174C78.1315 14.8848 77.5972 14.73 76.9684 14.553C76.0776 14.2924 75.2069 13.9681 74.3628 13.5825C73.668 13.2555 73.1424 12.848 72.786 12.36C72.4295 11.8719 72.2499 11.2471 72.2472 10.4856C72.2472 9.56435 72.4851 8.77155 72.9611 8.10719C73.437 7.44282 74.1016 6.92424 74.9548 6.55145C75.808 6.18004 76.8096 5.99399 77.9595 5.99329C78.9316 5.98794 79.8975 6.14744 80.8162 6.46502C81.7332 6.7909 82.5695 7.30972 83.2685 7.98639L81.7865 10.3013C81.1796 9.78556 80.4983 9.36429 79.7656 9.05167C79.1412 8.79562 78.4729 8.66301 77.798 8.66117C77.4388 8.66044 77.081 8.70665 76.7339 8.79863C76.4305 8.87098 76.1516 9.02182 75.9251 9.23598C75.7167 9.44425 75.6124 9.72645 75.6124 10.0982C75.6061 10.2386 75.6278 10.3789 75.6763 10.5108C75.7248 10.6428 75.7991 10.7637 75.8949 10.8667C76.142 11.0957 76.4367 11.2674 76.7578 11.3697C77.1434 11.5085 77.6149 11.6675 78.1721 11.8466C79.1435 12.1095 80.0976 12.4326 81.0288 12.814C81.8007 13.141 82.3892 13.5519 82.7943 14.0469C83.1994 14.5419 83.4012 15.2132 83.3998 16.0608C83.3998 17.4389 82.8881 18.5166 81.8647 19.2942C80.8412 20.0717 79.469 20.458 77.7479 20.4532Z" fill="white"/>
<path d="M94.6939 19.4284C94.3709 19.5721 93.9981 19.72 93.5757 19.872C93.1277 20.0324 92.6681 20.1584 92.201 20.249C91.7086 20.3477 91.2076 20.3972 90.7054 20.3969C90.0688 20.4053 89.4368 20.2874 88.8461 20.0501C88.2987 19.828 87.833 19.443 87.5121 18.9473C87.1793 18.4413 87.0132 17.779 87.0139 16.9605V8.89959H85.1807V6.15361H87.0139V1.57178H90.6512V6.15361H93.6163V8.89959H90.6512V15.7307C90.6689 16.2087 90.8044 16.5637 91.0556 16.7803C91.326 17.0085 91.6723 17.127 92.0259 17.1125C92.3943 17.1104 92.7594 17.0419 93.1035 16.9105C93.4627 16.7758 93.7594 16.6547 93.9936 16.5471L94.6939 19.4284Z" fill="white"/>
<path d="M103.888 20.452C102.836 20.4669 101.792 20.2726 100.816 19.8803C99.9512 19.5298 99.1666 19.0083 98.5091 18.347C97.8516 17.6858 97.3348 16.8985 96.9896 16.0326C96.6437 15.1598 96.4696 14.2285 96.4769 13.2897C96.4652 12.0214 96.7761 10.7709 97.3805 9.65551C97.9757 8.55177 98.8606 7.63089 99.9401 6.9918C101.045 6.32674 102.37 5.99386 103.915 5.99316C105.444 5.99316 106.755 6.32673 107.849 6.99388C108.913 7.62768 109.788 8.53446 110.383 9.6201C110.976 10.7077 111.282 11.9283 111.272 13.1669C111.272 13.398 111.263 13.6157 111.245 13.8198C111.227 14.028 111.209 14.1978 111.191 14.3404H100.304C100.336 15.0102 100.546 15.6594 100.91 16.2221C101.25 16.7299 101.714 17.1422 102.258 17.4196C102.795 17.6964 103.392 17.8393 103.996 17.8362C104.717 17.8414 105.427 17.6622 106.058 17.3155C106.695 16.9684 107.131 16.4974 107.365 15.9024L110.436 16.7636C110.103 17.4956 109.616 18.1475 109.008 18.6755C108.352 19.2475 107.593 19.6905 106.772 19.9813C105.845 20.3052 104.869 20.4645 103.888 20.452ZM100.197 12.0787H107.581C107.526 11.4299 107.318 10.8033 106.974 10.2501C106.65 9.74075 106.2 9.32361 105.667 9.03904C105.111 8.74557 104.49 8.59626 103.861 8.60481C103.245 8.59724 102.638 8.7467 102.096 9.03904C101.568 9.32728 101.123 9.74605 100.803 10.2553C100.458 10.8061 100.25 11.4313 100.197 12.0787Z" fill="white"/>
<path d="M121.49 9.44045C120.379 9.4592 119.391 9.67024 118.526 10.0736C117.709 10.4347 117.043 11.0672 116.64 11.8636V20.4264H113.056V6.45185H116.371V9.3332C116.873 8.36129 117.515 7.59765 118.297 7.04228C119.015 6.5091 119.87 6.19158 120.763 6.12695C120.906 6.14396 121.05 6.14849 121.194 6.14049C121.295 6.13005 121.396 6.14362 121.49 6.18006V9.44045Z" fill="white"/>
</g>
<defs>
<clipPath id="clip0_240_620">
<rect width="121.491" height="19.9998" fill="white" transform="translate(0 0.5)"/>
</clipPath>
</defs>
</svg>
