<svg width="37" height="40" viewBox="0 0 37 40" fill="none" xmlns="http://www.w3.org/2000/svg">
<path d="M16.9772 28C16.9772 28 19.4772 28 20.9999 26.7727C22.5226 25.5454 23.3692 23.6193 23.3692 23.6193L23.659 26.159L28.159 31.2727H36.9999L36.9317 39.7727H24.2045L20.1136 33.5227L18.6817 29.5L16.9772 28ZM33.9545 18.3181C33.9545 22.2045 33.1988 25.4829 31.6874 28.1534C30.1761 30.8125 28.1363 32.8295 25.5681 34.2045C22.9999 35.5681 20.1363 36.25 16.9772 36.25C13.7954 36.25 10.9204 35.5625 8.3522 34.1875C5.79538 32.8011 3.76129 30.7784 2.24992 28.1193C0.749924 25.4488 -7.62939e-05 22.1818 -7.62939e-05 18.3181C-7.62939e-05 14.4318 0.749924 11.159 2.24992 8.49996C3.76129 5.8295 5.79538 3.81246 8.3522 2.44882C10.9204 1.07382 13.7954 0.386322 16.9772 0.386322C20.1363 0.386322 22.9999 1.07382 25.5681 2.44882C28.1363 3.81246 30.1761 5.8295 31.6874 8.49996C33.1988 11.159 33.9545 14.4318 33.9545 18.3181ZM24.2045 18.3181C24.2045 16.2272 23.9261 14.4659 23.3692 13.0341C22.8238 11.5909 22.0113 10.5 20.9317 9.76132C19.8636 9.01132 18.5454 8.63632 16.9772 8.63632C15.409 8.63632 14.0852 9.01132 13.0056 9.76132C11.9374 10.5 11.1249 11.5909 10.5681 13.0341C10.0227 14.4659 9.74992 16.2272 9.74992 18.3181C9.74992 20.409 10.0227 22.1761 10.5681 23.6193C11.1249 25.0511 11.9374 26.142 13.0056 26.892C14.0852 27.6306 15.409 28 16.9772 28C18.5454 28 19.8636 27.6306 20.9317 26.892C22.0113 26.142 22.8238 25.0511 23.3692 23.6193C23.9261 22.1761 24.2045 20.409 24.2045 18.3181Z" fill="#4263EB"/>
</svg>
